<svg id="Layer_1" data-name="Layer 1" xmlns="http://www.w3.org/2000/svg" viewBox="0 0 150 150"><defs><style>.cls-1{fill:#231f20;}</style></defs><title>Artboard 52 copy 3</title><path class="cls-1" d="M149.5,75.84v0s0,0,0,0a1.4,1.4,0,0,0,.09-.29,2,2,0,0,0-.21-1.36l-20.1-50a2,2,0,0,0-.9-1.36,2.23,2.23,0,0,0-.49-.24L75.84.61h0a2,2,0,0,0-1.65,0L26.85,22.67a1.43,1.43,0,0,0-.27.15A2,2,0,0,0,25.7,24L.91,74a1.92,1.92,0,0,0-.22.51,1.29,1.29,0,0,0-.06.25v0A2,2,0,0,0,1,76.33l24.91,50.05A2,2,0,0,0,27,127.59L74,149.69a2,2,0,0,0,.85.19H75a2,2,0,0,0,.78-.16l52.36-22a2,2,0,0,0,1.18-1.44l20.18-50.37A.42.42,0,0,1,149.5,75.84ZM29.36,124.29,4.85,75.05,29.16,26,75.06,4.62,125.71,26l19.77,49.14-19.75,49.3L75,145.71Z"/><path class="cls-1" d="M59.17,67.58h-7a4.26,4.26,0,0,0-4.25,4.25v6.56a4.25,4.25,0,0,0,4.25,4.25h7a4.25,4.25,0,0,0,4.25-4.25V71.83A4.26,4.26,0,0,0,59.17,67.58Zm.25,10.81a.25.25,0,0,1-.25.25h-7a.25.25,0,0,1-.25-.25V71.83a.25.25,0,0,1,.25-.25h7a.25.25,0,0,1,.25.25Z"/><path class="cls-1" d="M97.3,82.69h7.08a4.27,4.27,0,0,0,4.27-4.27V71.8a4.27,4.27,0,0,0-4.27-4.27H97.3A4.27,4.27,0,0,0,93,71.8v6.62A4.27,4.27,0,0,0,97.3,82.69ZM97,71.8a.28.28,0,0,1,.27-.27h7.08a.28.28,0,0,1,.27.27v6.62a.27.27,0,0,1-.27.27H97.3a.27.27,0,0,1-.27-.27Z"/><path class="cls-1" d="M52.13,62.29h7A4.26,4.26,0,0,0,63.44,58V51.44a4.26,4.26,0,0,0-4.26-4.26h-7a4.26,4.26,0,0,0-4.26,4.26V58A4.26,4.26,0,0,0,52.13,62.29Zm-.26-10.85a.26.26,0,0,1,.26-.26h7a.26.26,0,0,1,.26.26V58a.26.26,0,0,1-.26.26h-7a.26.26,0,0,1-.26-.26Z"/><path class="cls-1" d="M52.12,103.52h7.07a4.27,4.27,0,0,0,4.27-4.26V92.65a4.27,4.27,0,0,0-4.27-4.26H52.12a4.27,4.27,0,0,0-4.27,4.26v6.61A4.27,4.27,0,0,0,52.12,103.52Zm-.27-10.87a.27.27,0,0,1,.27-.26h7.07a.27.27,0,0,1,.27.26v6.61a.27.27,0,0,1-.27.26H52.12a.27.27,0,0,1-.27-.26Z"/><path class="cls-1" d="M74.79,72.1h7a4.27,4.27,0,0,0,4.26-4.26V61.25A4.26,4.26,0,0,0,81.84,57h-7a4.26,4.26,0,0,0-4.26,4.26v6.59A4.27,4.27,0,0,0,74.79,72.1Zm-.26-10.85a.25.25,0,0,1,.26-.26h7a.26.26,0,0,1,.26.26v6.59a.26.26,0,0,1-.26.26h-7a.26.26,0,0,1-.26-.26Z"/><path class="cls-1" d="M81.84,77.83h-7a4.26,4.26,0,0,0-4.26,4.26v6.59a4.27,4.27,0,0,0,4.26,4.26h7a4.27,4.27,0,0,0,4.26-4.26V82.09A4.26,4.26,0,0,0,81.84,77.83Zm.26,10.85a.26.26,0,0,1-.26.26h-7a.26.26,0,0,1-.26-.26V82.09a.26.26,0,0,1,.26-.26h7a.26.26,0,0,1,.26.26Z"/><path class="cls-1" d="M117.84,115.55,133.75,76a2,2,0,0,0-.14-1.76L117.88,35a2,2,0,0,0-.3-.64l-.06-.07a1.09,1.09,0,0,0-.13-.17,2,2,0,0,0-1.06-.61L75.83,16.41h0a2,2,0,0,0-1.63,0L37.07,33.71a2,2,0,0,0-1,1.15L16.36,74.16a2,2,0,0,0,.11,2l19.71,39.28a2,2,0,0,0,.88,1.08l0,0a.57.57,0,0,0,.13.08l36.83,17.3a2,2,0,0,0,.79.18,1.26,1.26,0,0,0,.28,0,1.9,1.9,0,0,0,.77-.16l40.84-17.22A2,2,0,0,0,117.84,115.55ZM114.38,37l15.34,38.3L114.4,113.37,75.09,130l-35.5-16.67L20.39,75l19-38L75.06,20.42Z"/></svg>